<?xml version="1.0" standalone="no"?>
<!DOCTYPE svg PUBLIC "-//W3C//DTD SVG 20010904//EN"
 "http://www.w3.org/TR/2001/REC-SVG-20010904/DTD/svg10.dtd">
<svg version="1.0" xmlns="http://www.w3.org/2000/svg"
 width="500.000000pt" height="500.000000pt" viewBox="0 0 500.000000 500.000000"
 preserveAspectRatio="xMidYMid meet">
<metadata>
Created by potrace 1.14, written by Peter Selinger 2001-2017
</metadata>
<g transform="translate(0.000000,500.000000) scale(0.100000,-0.100000)"
fill="#000000" stroke="none">
<path d="M2325 4208 c-107 -9 -238 -45 -342 -93 -42 -19 -81 -35 -87 -35 -23
0 -163 -73 -243 -126 -117 -78 -247 -210 -312 -317 -29 -48 -53 -87 -54 -87
-1 0 0 59 1 132 3 117 2 134 -14 145 -10 7 -21 13 -24 13 -7 0 -13 -61 -11
-128 0 -23 -4 -40 -8 -37 -13 7 -38 -4 -38 -18 -1 -7 -2 -38 -4 -70 -1 -32 -7
-61 -12 -64 -6 -3 -7 -1 -3 5 4 7 2 12 -3 12 -6 0 -11 7 -11 15 0 21 -27 30
-45 15 -11 -10 -18 -9 -31 4 -11 12 -20 14 -28 6 -7 -5 -16 -7 -19 -3 -13 13
-37 -21 -37 -53 0 -19 -4 -34 -9 -34 -4 0 -11 -32 -13 -70 -4 -55 -10 -74 -27
-89 -19 -17 -21 -28 -21 -140 0 -115 -1 -122 -19 -116 -25 8 -48 -20 -32 -39
7 -8 20 -12 30 -9 16 4 19 -3 21 -54 3 -90 5 -101 11 -107 14 -14 52 -14 74 0
22 14 24 14 34 -4 12 -22 7 -123 -7 -149 -10 -17 -11 -17 -18 0 -5 14 -9 15
-15 6 -5 -9 -14 -2 -29 24 -20 34 -39 53 -25 25 4 -7 0 -5 -9 5 -8 10 -23 17
-33 15 -16 -3 -18 -16 -21 -109 -2 -88 0 -108 13 -119 13 -11 18 -11 24 -2 4
7 15 10 24 6 19 -7 19 5 17 -336 l-1 -227 37 -16 c20 -8 38 -15 39 -15 3 0 16
106 17 137 0 15 4 20 12 16 8 -5 8 -3 0 8 -6 8 -12 31 -12 52 -2 63 20 39 54
-59 63 -184 229 -469 333 -573 148 -148 299 -260 453 -338 224 -112 567 -173
808 -144 142 18 154 20 295 56 283 72 516 203 630 353 28 36 63 79 78 96 76
80 139 206 165 326 11 47 27 100 37 119 57 110 76 233 80 519 2 162 1 172 -16
172 -13 0 -19 -8 -20 -22 -1 -13 -2 -38 -2 -57 -2 -37 -22 -53 -31 -24 -12 39
-14 73 -6 78 5 3 6 16 2 28 -4 12 -7 82 -6 155 1 78 -2 132 -8 132 -5 0 -6 5
-2 11 3 6 7 38 8 70 2 59 8 74 29 74 8 0 13 26 15 75 3 74 2 76 -27 93 -28 17
-31 17 -65 -4 -20 -11 -36 -28 -36 -37 0 -15 -2 -15 -10 -2 -5 8 -10 72 -10
143 0 120 -1 127 -20 127 -18 0 -20 -7 -21 -65 -2 -75 -2 -76 -12 -92 -5 -7
-4 -13 1 -13 16 0 9 -30 -7 -31 -14 0 -14 -1 -1 -7 20 -9 23 -31 4 -28 -15 2
-36 28 -47 59 -4 11 -3 16 3 12 15 -9 16 343 1 358 -4 4 -15 1 -25 -6 -16 -12
-18 -28 -18 -123 1 -60 -3 -118 -8 -129 -5 -11 -9 -14 -9 -8 -1 12 -19 38 -51
71 -8 9 -27 31 -43 50 l-27 35 27 19 28 18 -85 82 c-47 46 -123 111 -170 146
-47 35 -96 72 -110 83 -43 34 -244 127 -352 164 -186 62 -347 81 -543 63z
m-1250 -638 c3 -5 1 -10 -4 -10 -6 0 -11 5 -11 10 0 6 2 10 4 10 3 0 8 -4 11
-10z m171 -49 c-4 -5 -1 -11 5 -13 11 -4 2 -38 -11 -38 -5 0 -8 14 -8 30 1 17
5 30 10 30 5 0 7 -4 4 -9z m-26 -111 c0 -11 -4 -20 -8 -20 -4 0 -8 9 -9 20 -1
11 2 20 8 20 5 0 9 -9 9 -20z m2591 -717 c-12 -20 -14 -14 -5 12 4 9 9 14 11
11 3 -2 0 -13 -6 -23z m-30 -207 c-9 -11 -9 -15 0 -18 8 -3 6 -9 -5 -21 -10
-9 -14 -17 -10 -17 3 0 2 -6 -5 -13 -8 -10 -7 -17 1 -25 9 -9 9 -12 -1 -12 -7
0 -10 -4 -7 -9 9 -14 -4 -41 -20 -41 -8 0 -14 5 -14 10 0 6 4 10 9 10 6 0 8 9
6 20 -2 11 0 20 5 20 6 0 6 9 0 24 -6 18 -3 31 13 55 12 17 26 31 31 31 5 0 3
-6 -3 -14z"/>
<path d="M1147 4062 c-12 -13 -16 -36 -15 -92 2 -102 -4 -164 -17 -172 -6 -5
-6 -8 3 -8 6 0 12 -5 12 -11 0 -5 -6 -7 -12 -3 -10 6 -10 4 0 -7 6 -7 12 -17
12 -22 0 -4 -6 -5 -12 -1 -7 4 -3 -3 9 -16 16 -17 28 -21 48 -16 l26 7 -2 172
c-1 161 -6 186 -30 187 -3 0 -13 -8 -22 -18z"/>
<path d="M1047 3843 c-9 -16 -5 -188 5 -200 6 -7 7 -13 3 -13 -4 0 -2 -7 5
-15 10 -12 15 -13 28 -3 8 7 18 12 21 10 3 -2 7 2 9 10 2 9 0 8 -7 -2 -6 -8
-11 -11 -11 -6 0 5 -6 3 -14 -3 -8 -7 -16 -8 -19 -4 -6 11 19 34 27 25 4 -3 4
1 1 9 -3 9 -7 56 -8 105 -2 74 -5 89 -19 92 -9 2 -18 -1 -21 -5z"/>
<path d="M881 3378 c0 -64 3 -77 10 -59 11 29 10 141 -2 141 -5 0 -9 -37 -8
-82z"/>
<path d="M3860 3444 c0 -9 5 -14 12 -12 18 6 21 28 4 28 -9 0 -16 -7 -16 -16z"/>
<path d="M4089 2998 c-1 -13 -1 -26 0 -30 0 -5 -4 -8 -10 -8 -8 0 -8 -4 -2
-12 13 -17 15 -148 2 -148 -5 0 -9 5 -9 10 0 7 -6 7 -20 0 -15 -8 -20 -21 -20
-54 0 -51 6 -59 32 -45 13 7 18 18 15 30 -3 10 -1 22 5 25 5 3 12 -4 15 -15 3
-12 11 -20 17 -18 7 2 12 52 14 145 3 138 3 142 -17 142 -15 0 -21 -7 -22 -22z"/>
<path d="M3976 2951 c-8 -13 4 -41 18 -41 22 0 39 18 33 34 -7 17 -42 22 -51
7z"/>
<path d="M3940 2870 c0 -27 5 -43 15 -47 22 -8 24 -3 18 45 -8 56 -33 58 -33
2z"/>
<path d="M4096 2632 c-4 -7 -9 -115 -7 -149 1 -7 8 -13 16 -13 12 0 15 16 15
85 0 75 -8 102 -24 77z"/>
<path d="M900 2511 c0 -11 -4 -22 -8 -25 -12 -7 -14 -78 -3 -95 11 -17 30 -7
30 17 0 9 2 32 4 50 2 18 -1 32 -7 32 -7 0 -8 3 -1 8 16 12 16 32 0 32 -8 0
-15 -9 -15 -19z"/>
<path d="M4092 2447 c-15 -17 -6 -47 14 -47 15 0 17 14 5 43 -6 16 -9 17 -19
4z"/>
<path d="M1089 2038 c-6 -74 -4 -185 3 -194 5 -7 18 -10 28 -7 15 4 20 15 21
42 2 42 -1 114 -6 139 -2 9 -4 20 -4 25 -2 12 -41 8 -42 -5z"/>
<path d="M1181 1734 c0 -11 3 -14 6 -6 3 7 2 16 -1 19 -3 4 -6 -2 -5 -13z"/>
</g>
</svg>
